<?xml version="1.0" encoding="UTF-8" standalone="no"?>
<svg width="37px" height="37px" viewBox="0 0 37 37" version="1.1" xmlns="http://www.w3.org/2000/svg" xmlns:xlink="http://www.w3.org/1999/xlink" xmlns:sketch="http://www.bohemiancoding.com/sketch/ns">
    <!-- Generator: Sketch 3.0.1 (7597) - http://www.bohemiancoding.com/sketch -->
    <title>Eye</title>
    <description>Created with Sketch.</description>
    <defs></defs>
    <g id="Page-1" stroke="none" stroke-width="1" fill="none" fill-rule="evenodd" sketch:type="MSPage">
        <g id="Exports" sketch:type="MSArtboardGroup" transform="translate(-14.000000, -151.000000)" fill="#000000">
            <g id="Eye" sketch:type="MSLayerGroup" transform="translate(14.000000, 151.000000)">
                <path d="M18.6090909,8.92 C20.5606158,8.92 22.4378698,9.18709135 24.2409091,9.72128205 C26.0439484,10.2554728 27.539388,10.9178593 28.7272727,11.7084615 C29.9151575,12.4990638 30.965147,13.3217051 31.8772727,14.1764103 C32.7893985,15.0311154 33.4575736,15.7896548 33.8818182,16.4520513 C34.3060627,17.1144478 34.5181818,17.5952122 34.5181818,17.894359 C34.5181818,18.1935058 34.3060627,18.6635865 33.8818182,19.3046154 C33.4575736,19.9456442 32.7893985,20.7041837 31.8772727,21.5802564 C30.965147,22.4563292 29.9151575,23.2896542 28.7272727,24.0802564 C27.539388,24.8708587 26.0439484,25.5332452 24.2409091,26.0674359 C22.4378698,26.6016266 20.5606158,26.8687179 18.6090909,26.8687179 C16.657566,26.8687179 14.780312,26.6016266 12.9772727,26.0674359 C11.1742334,25.5332452 9.67879382,24.8708587 8.49090909,24.0802564 C7.30302436,23.2896542 6.25303486,22.4563292 5.34090909,21.5802564 C4.42878332,20.7041837 3.76060818,19.9456442 3.33636364,19.3046154 C2.91211909,18.6635865 2.7,18.1935058 2.7,17.894359 C2.7,17.5952122 2.91211909,17.1144478 3.33636364,16.4520513 C3.76060818,15.7896548 4.42878332,15.0311154 5.34090909,14.1764103 C6.25303486,13.3217051 7.30302436,12.4990638 8.49090909,11.7084615 C9.67879382,10.9178593 11.1742334,10.2554728 12.9772727,9.72128205 C14.780312,9.18709135 16.657566,8.92 18.6090909,8.92 Z M18.6090909,24.7533333 C20.5606158,24.7533333 22.2257507,24.0802631 23.6045455,22.7341026 C24.9833402,21.387942 25.6727273,19.7747103 25.6727273,17.894359 C25.6727273,15.9712724 24.9833402,14.3366734 23.6045455,12.9905128 C22.2257507,11.6443522 20.5606158,10.9712821 18.6090909,10.9712821 C16.657566,10.9712821 14.9924311,11.6443522 13.6136364,12.9905128 C12.2348416,14.3366734 11.5454545,15.9712724 11.5454545,17.894359 C11.5454545,19.7747103 12.2348416,21.387942 13.6136364,22.7341026 C14.9924311,24.0802631 16.657566,24.7533333 18.6090909,24.7533333 Z M18.6090909,17.894359 C18.7787887,18.0653 19.171209,18.0866673 19.7863636,17.9584615 C20.4015182,17.8302558 20.931816,17.7127356 21.3772727,17.6058974 C21.8227295,17.4990593 22.0878784,17.5952122 22.1727273,17.894359 C22.1727273,18.8345346 21.8227308,19.6358087 21.1227273,20.2982051 C20.4227238,20.9606016 19.5848534,21.2917949 18.6090909,21.2917949 C17.6333285,21.2917949 16.806064,20.9606016 16.1272727,20.2982051 C15.4484815,19.6358087 15.1090909,18.8345346 15.1090909,17.894359 C15.1090909,16.9114481 15.4484815,16.0888067 16.1272727,15.4264103 C16.806064,14.7640138 17.6333285,14.4328205 18.6090909,14.4328205 C18.9060621,14.4328205 19.0121216,14.6785446 18.9272727,15.17 C18.8424238,15.6614554 18.7151524,16.1635872 18.5454545,16.6764103 C18.3757567,17.1892333 18.3969686,17.5952122 18.6090909,17.894359 Z" sketch:type="MSShapeGroup"></path>
            </g>
        </g>
    </g>
</svg>