<?xml version="1.0" encoding="UTF-8" standalone="no"?>
<svg width="37px" height="37px" viewBox="0 0 37 37" version="1.1" xmlns="http://www.w3.org/2000/svg" xmlns:xlink="http://www.w3.org/1999/xlink" xmlns:sketch="http://www.bohemiancoding.com/sketch/ns">
    <!-- Generator: Sketch 3.0.1 (7597) - http://www.bohemiancoding.com/sketch -->
    <title>Facebook</title>
    <description>Created with Sketch.</description>
    <defs></defs>
    <g id="Page-1" stroke="none" stroke-width="1" fill="none" fill-rule="evenodd" sketch:type="MSPage">
        <g id="Exports" sketch:type="MSArtboardGroup" transform="translate(-14.000000, -61.000000)" fill="#000000">
            <g id="Twitter-+-Facebook-+-Website" sketch:type="MSLayerGroup" transform="translate(14.000000, 16.000000)">
                <g id="Facebook" transform="translate(0.000000, 45.000000)" sketch:type="MSShapeGroup">
                    <path d="M18.5,37 C28.7172679,37 37,28.7172679 37,18.5 C37,8.28273213 28.7172679,0 18.5,0 C8.28273213,0 0,8.28273213 0,18.5 C0,28.7172679 8.28273213,37 18.5,37 Z M23.4,12.914 L20.702,12.914 C20.5246658,12.914 20.366334,13.0089991 20.227,13.199 C20.087666,13.389001 20.018,13.6233319 20.018,13.902 L20.018,15.84 L23.4,15.84 L23.4,18.652 L20.018,18.652 L20.018,27.05 L16.788,27.05 L16.788,18.652 L13.9,18.652 L13.9,15.84 L16.788,15.84 L16.788,14.206 C16.788,13.0153274 17.1616629,12.0083375 17.909,11.185 C18.6563371,10.3616626 19.5873278,9.95 20.702,9.95 L23.4,9.95 L23.4,12.914 Z" id="Oval-1"></path>
                </g>
            </g>
        </g>
    </g>
</svg>