<?xml version="1.0" encoding="UTF-8" standalone="no"?>
<svg width="37px" height="37px" viewBox="0 0 37 37" version="1.1" xmlns="http://www.w3.org/2000/svg" xmlns:xlink="http://www.w3.org/1999/xlink" xmlns:sketch="http://www.bohemiancoding.com/sketch/ns">
    <!-- Generator: Sketch 3.0.1 (7597) - http://www.bohemiancoding.com/sketch -->
    <title>Twitter</title>
    <description>Created with Sketch.</description>
    <defs></defs>
    <g id="Page-1" stroke="none" stroke-width="1" fill="none" fill-rule="evenodd" sketch:type="MSPage">
        <g id="Exports" sketch:type="MSArtboardGroup" transform="translate(-14.000000, -16.000000)" fill="#000000">
            <g id="Twitter-+-Facebook-+-Website" sketch:type="MSLayerGroup" transform="translate(14.000000, 16.000000)">
                <g id="Twitter" sketch:type="MSShapeGroup">
                    <path d="M18.5,37 C28.7172679,37 37,28.7172679 37,18.5 C37,8.28273213 28.7172679,0 18.5,0 C8.28273213,0 0,8.28273213 0,18.5 C0,28.7172679 8.28273213,37 18.5,37 Z M28.38,14.066 C27.9239977,14.7500034 27.3286703,15.3706639 26.594,15.928 L26.594,16.384 C26.594,18.0306749 26.2140038,19.6139924 25.454,21.134 C24.6939962,22.6540076 23.516008,23.9396614 21.92,24.991 C20.323992,26.0423386 18.4873437,26.568 16.41,26.568 C14.3833232,26.568 12.5466749,26.0360053 10.9,24.972 C11.0773342,24.9973335 11.3686646,25.01 11.774,25.01 C13.4460084,25.01 14.9279935,24.5033384 16.22,23.49 C15.4346627,23.4646665 14.738003,23.2240023 14.13,22.768 C13.521997,22.3119977 13.1040011,21.7166703 12.876,20.982 C13.0026673,21.0326669 13.2179985,21.058 13.522,21.058 C13.851335,21.058 14.1679985,21.0200004 14.472,20.944 C13.6359958,20.7666658 12.9520027,20.34867 12.42,19.69 C11.8879973,19.03133 11.622,18.2713376 11.622,17.41 L11.622,17.372 C12.0780023,17.6253346 12.609997,17.7773331 13.218,17.828 C12.1539947,17.0933297 11.622,16.092673 11.622,14.826 C11.622,14.217997 11.786665,13.6226696 12.116,13.04 C14.0666764,15.4213452 16.5366517,16.6626662 19.526,16.764 C19.4499996,16.5359989 19.412,16.2700015 19.412,15.966 C19.412,14.9779951 19.7603298,14.1356702 20.457,13.439 C21.1536701,12.7423299 22.0086616,12.394 23.022,12.394 C24.0606719,12.394 24.9219966,12.7613297 25.606,13.496 C26.3660038,13.3439992 27.1259962,13.0653354 27.886,12.66 C27.6326654,13.4960042 27.1133373,14.1546643 26.328,14.636 C27.0373369,14.5346662 27.72133,14.3446681 28.38,14.066 Z" id="Oval-1"></path>
                </g>
            </g>
        </g>
    </g>
</svg>