<?xml version="1.0" encoding="UTF-8" standalone="no"?>
<svg width="37px" height="37px" viewBox="0 0 37 37" version="1.1" xmlns="http://www.w3.org/2000/svg" xmlns:xlink="http://www.w3.org/1999/xlink" xmlns:sketch="http://www.bohemiancoding.com/sketch/ns">
    <!-- Generator: Sketch 3.0.1 (7597) - http://www.bohemiancoding.com/sketch -->
    <title>Website</title>
    <description>Created with Sketch.</description>
    <defs></defs>
    <g id="Page-1" stroke="none" stroke-width="1" fill="none" fill-rule="evenodd" sketch:type="MSPage">
        <g id="Exports" sketch:type="MSArtboardGroup" transform="translate(-14.000000, -106.000000)" fill="#000000">
            <g id="Twitter-+-Facebook-+-Website" sketch:type="MSLayerGroup" transform="translate(14.000000, 16.000000)">
                <g id="Website" transform="translate(0.000000, 90.000000)" sketch:type="MSShapeGroup">
                    <path d="M18.5,37 C28.7172679,37 37,28.7172679 37,18.5 C37,8.28273213 28.7172679,0 18.5,0 C8.28273213,0 0,8.28273213 0,18.5 C0,28.7172679 8.28273213,37 18.5,37 Z M26.2741668,18.905 C26.4608344,19.0916676 26.5250004,19.249166 26.4666668,19.3775 C26.4083332,19.505834 26.2508347,19.57 25.9941668,19.57 L24.5241668,19.57 L24.5241668,24.995 C24.5241668,25.1583342 24.5183335,25.2808329 24.5066668,25.3625 C24.4950001,25.4441671 24.4483339,25.5199997 24.3666668,25.59 C24.2849997,25.6600004 24.1508344,25.695 23.9641668,25.695 L20.3941668,25.695 L20.3941668,20.27 L16.8241668,20.27 L16.8241668,25.695 L13.4291668,25.695 C13.1024985,25.695 12.8983339,25.6366673 12.8166668,25.52 C12.7349997,25.4033328 12.6941668,25.2283345 12.6941668,24.995 L12.6941668,19.57 L11.2241668,19.57 C10.9674988,19.57 10.8100004,19.505834 10.7516668,19.3775 C10.6933332,19.249166 10.7574992,19.0916676 10.9441668,18.905 L17.9441668,11.87 C18.1308344,11.6833324 18.3524988,11.59 18.6091668,11.59 C18.8658347,11.59 19.0874992,11.6833324 19.2741668,11.87 L26.2741668,18.905 Z" id="Oval-1"></path>
                </g>
            </g>
        </g>
    </g>
</svg>